<?xml version="1.0" standalone="no"?>
<svg version="1.1" baseProfile="full" xmlns="http://www.w3.org/2000/svg" width="614" height="858" viewBox="5 0 614 858" style="margin:0 auto; __background:url(img/svg-6.jpg) no-repeat 0 0;">
	<defs>
		<style>
			.h1{font-family:"Arial"; font-size:54px; text fill:#333333; font-weight:bold; ____fill:red}
			.p2 {font-family:"Arial"; font-size:9px; fill:#333; ____fill:red}
			.p3 {font-family:"Arial"; font-size:9px; fill:#333; word-spacing: 4px; ____fill:red}
			.p2b {font-family:"Arial"; font-size:11px; font-weight:600; fill:#333;____fill:red}
			.h2 {font-family:"Arial"; font-size:11px; fill:#6094CE; font-weight:600; ____fill:red}
			.subheding {font-family:"Arial"; font-size:10px; fill:#767774; font-weight:600; ____fill:red}
			.li-disc {fill:#333; ____fill:red}
			.text-cap {font-size:28px; fill: #fff;font-family:"Arial";}
			.line{stroke:#fff;___stroke:#090;}

		</style>
	</defs>

	<text x="92" y="32" class="h1">
		<tspan x="160" y="84">Stella Walker</tspan>
	</text>

	<text x="9" y="92" class="p3">
		<tspan x="200" y="114">jwalker@live.com | 508-278-2542 | 508-278-2542</tspan>
		<tspan x="200" y="130">24Armor Lane, North Easton,Ma 02356</tspan>
	</text>

	<!-- <text x="22" y="174" class="h2">PROFESSIONAL SUMMARY</text>	 -->
	
	<rect width="94%" height="75" style="fill:#ffb3b3" x="9" y="150"></rect>
	<text x="26" y="172" class="p2">Successful sales professional with 10+ years experience in large-scale food and retail environments hi there how are you hope fine yeah.</text>	
	<text x="26" y="188" class="p2"> Implement cost control measures to ensure operations remain within company targets. Maximize hi there how are you hope fine yeah</text>
	<text x="26" y="204" class="p2">bottom-line performance through PL, merchandising, staff management, loss control and inventory  hi there how are you hope fine yeah</text>


	<text x="22" y="282" class="h2" style="fill:#ffb3b3">SKILLS</text>

	<circle cx="195" cy="275" r="1.5"  class="li-disc"></circle>			
	<circle cx="195" cy="292" r="1.5" class="li-disc"></circle>			
	<circle cx="195" cy="308" r="1.5" class="li-disc"></circle>
	<circle cx="195" cy="326" r="1.5" class="li-disc"></circle>

	<text x="210" y="278" class="p2">Executive team leadership</text>
	<text x="210" y="295" class="p2">Inventory report generation</text>
	<text x="210" y="311" class="p2">Client/Vendor relations</text>
	<text x="210" y="329" class="p2">Market analysis</text>

	<circle cx="384" cy="275" r="1.5"  class="li-disc"></circle>			
	<circle cx="384" cy="292" r="1.5" class="li-disc"></circle>			
	<circle cx="384" cy="308" r="1.5" class="li-disc"></circle>
	<circle cx="384" cy="326" r="1.5" class="li-disc"></circle>

	<text x="402" y="278" class="p2">Sales management</text>
	<text x="402" y="295" class="p2">Staff training</text>
	<text x="402" y="311" class="p2">Customer relations</text>
	<text x="402" y="329" class="p2">Process Improvements</text>

	<!--Core Qualification Section End-->

	<text x="22" y="390" class="h2" style="fill:#ffb3b3">EXPERIENCE</text>

	<text x="195" y="388" class="subheding">August 2011-Current</text>
	<text x="195" y="402" class="subheding">District Manager</text>
	<text x="195" y="416" class="subheding">Verizon Wireless | San Francisco, CA</text>
	
	<g  transform="translate(0 14)">
		<circle cx="195" cy="420" r="1"  class="li-disc"></circle>			
		<circle cx="195" cy="438" r="1" class="li-disc"></circle>			
		<circle cx="195" cy="454" r="1" class="li-disc"></circle>
		<circle cx="195" cy="472" r="1" class="li-disc"></circle>
		<circle cx="195" cy="472" r="1" class="li-disc"></circle>

		<text x="24" y="380" class="p2">
			<tspan x="210" y="423">Directed recruitment/training/staff development initiatives.</tspan>
			<tspan x="210" y="441">Compute taxes owed and prepare tax returns, ensuring compliance with reporting.</tspan>
			<tspan x="210" y="457">Administered daily operations to ensure policies were adhered to by sales staff.</tspan>
			<tspan x="210" y="475">Cultivated strong business relationships with customers to drive business.</tspan>
		</text>		
	</g>

	<text x="195" y="518" class="subheding">August 2005-2011</text>
	<text x="195" y="532" class="subheding">District Manager</text>
	<text x="195" y="546" class="subheding">Verizon Wireless | San Francisco, CA</text>
	
	<g  transform="translate(0 30)">	
		<circle cx="195" cy="532" r="1"  class="li-disc"></circle>			
		<circle cx="195" cy="550" r="1" class="li-disc"></circle>			
		<circle cx="195" cy="568" r="1" class="li-disc"></circle>
		<circle cx="195" cy="586" r="1" class="li-disc"></circle>

		<text x="24" y="532" class="p2">
			<tspan x="210" y="535">Directed recruitment/training/staff development initiatives.</tspan>
			<tspan x="210" y="553">Compute taxes owed and prepare tax returns, ensuring compliance with reporting.</tspan>
			<tspan x="210" y="571">Administered daily operations to ensure policies were adhered to by sales staff.</tspan>
			<tspan x="210" y="589">Cultivated strong business relationships with customers to drive business.</tspan>
		</text>		
	</g>

	<!-- Exp Second Section End -->

	<!-- Education Section-->
	<g  transform="translate(0 25)">
		<text x="22" y="652" class="h2" style="fill:#ffb3b3">EDUCATION</text>

		<text x="195" y="650" class="subheding">August 2011</text>
		<text x="195" y="652" class="p2">
			<tspan x="195" y="668">Bachelor of Arts: Operational Managements</tspan>
			<tspan x="195" y="684">San Francisco State University, San Francisco, CA</tspan>			
		</text>

		<text x="195" y="712" class="subheding">August 2011</text>
		<text x="195" y="716" class="p2">
			<tspan x="195" y="728">Bachelor of Arts: Operational Managements</tspan>
			<tspan x="195" y="746">San Francisco State University, San Francisco, CA</tspan>			
		</text>
	</g>

</svg>